<?xml version="1.0" encoding="UTF-8" standalone="no"?>
<svg width="700" height="500" xmlns="http://www.w3.org/2000/svg">
  <!-- 背景と枠 -->
  <rect x="10" y="10" width="680" height="480" fill="#f8f9fa" stroke="#dee2e6" stroke-width="2" rx="5" ry="5"/>
  
  <!-- ヘッダー部分 -->
  <rect x="10" y="10" width="680" height="60" fill="#e9ecef" stroke="#dee2e6" stroke-width="1" rx="5" ry="5"/>
  <text x="50" y="45" font-family="Arial" font-size="22" font-weight="bold" fill="#212529">Webアプリケーション</text>
  
  <!-- ユーザー情報部分 -->
  <text x="550" y="35" font-family="Arial" font-size="14" text-anchor="end" fill="#6c757d">ユーザー: 管理者</text>
  <text x="550" y="55" font-family="Arial" font-size="12" text-anchor="end" fill="#6c757d">最終ログイン: 2025/04/26 15:30</text>
  
  <!-- ログアウトボタン -->
  <rect x="580" y="25" width="100" height="30" fill="#6c757d" stroke="none" rx="3" ry="3"/>
  <text x="630" y="45" font-family="Arial" font-size="14" text-anchor="middle" fill="white">ログアウト</text>
  
  <!-- メインコンテンツエリア -->
  <rect x="20" y="80" width="660" height="410" fill="white" stroke="#dee2e6" stroke-width="1" rx="3" ry="3"/>
  
  <!-- コンテンツタイトル -->
  <text x="40" y="110" font-family="Arial" font-size="20" font-weight="bold" fill="#212529">ユーザー一覧</text>
  
  <!-- 検索条件エリア -->
  <rect x="40" y="130" width="620" height="100" fill="#f8f9fa" stroke="#dee2e6" stroke-width="1" rx="3" ry="3"/>
  
  <!-- 検索条件 - ユーザーID -->
  <text x="55" y="155" font-family="Arial" font-size="14" fill="#212529">ユーザーID:</text>
  <rect x="140" y="140" width="150" height="25" fill="white" stroke="#ced4da" stroke-width="1" rx="3" ry="3"/>
  
  <!-- 検索条件 - ユーザー名 -->
  <text x="320" y="155" font-family="Arial" font-size="14" fill="#212529">ユーザー名:</text>
  <rect x="400" y="140" width="150" height="25" fill="white" stroke="#ced4da" stroke-width="1" rx="3" ry="3"/>
  
  <!-- 検索条件 - 部署 -->
  <text x="55" y="195" font-family="Arial" font-size="14" fill="#212529">部署:</text>
  <rect x="140" y="180" width="150" height="25" fill="white" stroke="#ced4da" stroke-width="1" rx="3" ry="3"/>
  <text x="260" y="195" font-family="Arial" font-size="12" fill="#212529">▼</text>
  
  <!-- 検索条件 - ステータス -->
  <text x="320" y="195" font-family="Arial" font-size="14" fill="#212529">ステータス:</text>
  <rect x="400" y="180" width="150" height="25" fill="white" stroke="#ced4da" stroke-width="1" rx="3" ry="3"/>
  <text x="520" y="195" font-family="Arial" font-size="12" fill="#212529">▼</text>
  
  <!-- 検索ボタン -->
  <rect x="580" y="140" width="70" height="30" fill="#007bff" stroke="none" rx="3" ry="3"/>
  <text x="615" y="160" font-family="Arial" font-size="14" text-anchor="middle" fill="white">検索</text>
  
  <!-- クリアボタン -->
  <rect x="580" y="180" width="70" height="30" fill="#6c757d" stroke="none" rx="3" ry="3"/>
  <text x="615" y="200" font-family="Arial" font-size="14" text-anchor="middle" fill="white">クリア</text>
  
  <!-- 検索結果エリア -->
  <rect x="40" y="240" width="620" height="200" fill="#ffffff" stroke="#dee2e6" stroke-width="1" rx="3" ry="3"/>
  
  <!-- テーブルヘッダー -->
  <rect x="40" y="240" width="620" height="30" fill="#e9ecef" stroke="#dee2e6" stroke-width="1"/>
  <text x="55" y="260" font-family="Arial" font-size="14" font-weight="bold" fill="#212529">ユーザーID</text>
  <text x="160" y="260" font-family="Arial" font-size="14" font-weight="bold" fill="#212529">ユーザー名</text>
  <text x="280" y="260" font-family="Arial" font-size="14" font-weight="bold" fill="#212529">メールアドレス</text>
  <text x="440" y="260" font-family="Arial" font-size="14" font-weight="bold" fill="#212529">部署</text>
  <text x="520" y="260" font-family="Arial" font-size="14" font-weight="bold" fill="#212529">ロール</text>
  <text x="600" y="260" font-family="Arial" font-size="14" font-weight="bold" fill="#212529">操作</text>
  
  <!-- テーブル内容 1行目 -->
  <rect x="40" y="270" width="620" height="30" fill="#ffffff" stroke="#dee2e6" stroke-width="1"/>
  <text x="55" y="290" font-family="Arial" font-size="14" fill="#212529">user001</text>
  <text x="160" y="290" font-family="Arial" font-size="14" fill="#212529">山田 太郎</text>
  <text x="280" y="290" font-family="Arial" font-size="14" fill="#212529">yamada@example.com</text>
  <text x="440" y="290" font-family="Arial" font-size="14" fill="#212529">営業部</text>
  <text x="520" y="290" font-family="Arial" font-size="14" fill="#212529">一般</text>
  <rect x="590" y="275" width="40" height="20" fill="#28a745" stroke="none" rx="3" ry="3"/>
  <text x="610" y="290" font-family="Arial" font-size="12" text-anchor="middle" fill="white">編集</text>
  
  <!-- テーブル内容 2行目 -->
  <rect x="40" y="300" width="620" height="30" fill="#f8f9fa" stroke="#dee2e6" stroke-width="1"/>
  <text x="55" y="320" font-family="Arial" font-size="14" fill="#212529">user002</text>
  <text x="160" y="320" font-family="Arial" font-size="14" fill="#212529">鈴木 花子</text>
  <text x="280" y="320" font-family="Arial" font-size="14" fill="#212529">suzuki@example.com</text>
  <text x="440" y="320" font-family="Arial" font-size="14" fill="#212529">人事部</text>
  <text x="520" y="320" font-family="Arial" font-size="14" fill="#212529">管理者</text>
  <rect x="590" y="305" width="40" height="20" fill="#28a745" stroke="none" rx="3" ry="3"/>
  <text x="610" y="320" font-family="Arial" font-size="12" text-anchor="middle" fill="white">編集</text>
  
  <!-- テーブル内容 3行目 -->
  <rect x="40" y="330" width="620" height="30" fill="#ffffff" stroke="#dee2e6" stroke-width="1"/>
  <text x="55" y="350" font-family="Arial" font-size="14" fill="#212529">user003</text>
  <text x="160" y="350" font-family="Arial" font-size="14" fill="#212529">佐藤 次郎</text>
  <text x="280" y="350" font-family="Arial" font-size="14" fill="#212529">sato@example.com</text>
  <text x="440" y="350" font-family="Arial" font-size="14" fill="#212529">技術部</text>
  <text x="520" y="350" font-family="Arial" font-size="14" fill="#212529">一般</text>
  <rect x="590" y="335" width="40" height="20" fill="#28a745" stroke="none" rx="3" ry="3"/>
  <text x="610" y="350" font-family="Arial" font-size="12" text-anchor="middle" fill="white">編集</text>
  
  <!-- ページネーション -->
  <text x="300" y="405" font-family="Arial" font-size="14" text-anchor="middle" fill="#212529">1-3 / 25 件</text>
  <rect x="360" y="390" width="30" height="25" fill="#ffffff" stroke="#007bff" stroke-width="1" rx="3" ry="3"/>
  <text x="375" y="407" font-family="Arial" font-size="14" text-anchor="middle" fill="#007bff">1</text>
  <rect x="395" y="390" width="30" height="25" fill="#ffffff" stroke="#007bff" stroke-width="1" rx="3" ry="3"/>
  <text x="410" y="407" font-family="Arial" font-size="14" text-anchor="middle" fill="#007bff">2</text>
  <rect x="430" y="390" width="30" height="25" fill="#ffffff" stroke="#007bff" stroke-width="1" rx="3" ry="3"/>
  <text x="445" y="407" font-family="Arial" font-size="14" text-anchor="middle" fill="#007bff">3</text>
  
  <!-- 操作ボタンエリア -->
  <rect x="40" y="450" width="620" height="30" fill="#ffffff" stroke="none" rx="3" ry="3"/>
  <rect x="40" y="450" width="100" height="30" fill="#007bff" stroke="none" rx="3" ry="3"/>
  <text x="90" y="470" font-family="Arial" font-size="14" text-anchor="middle" fill="white">新規登録</text>
  
  <rect x="560" y="450" width="100" height="30" fill="#6c757d" stroke="none" rx="3" ry="3"/>
  <text x="610" y="470" font-family="Arial" font-size="14" text-anchor="middle" fill="white">戻る</text>
</svg>